<svg xmlns="http://www.w3.org/2000/svg" viewBox="0 0 24 24">
  <path fill="#1D9BF0" d="M22.25 12c0-1.43-.88-2.67-2.19-3.34.46-1.39.2-2.9-.81-3.91s-2.52-1.27-3.91-.81C14.67 2.63 13.43 1.75 12 1.75s-2.67.88-3.34 2.19c-1.39-.46-2.9-.2-3.91.81s-1.27 2.52-.81 3.91C2.63 9.33 1.75 10.57 1.75 12s.88 2.67 2.19 3.34c-.46 1.39-.2 2.9.81 3.91s2.52 1.27 3.91.81c.67 1.31 1.91 2.19 3.34 2.19s2.67-.88 3.34-2.19c1.39.46 2.9.2 3.91-.81s1.27-2.52.81-3.91c1.31-.67 2.19-1.91 2.19-3.34z"/>
  <path fill="#fff" d="M10.96 15.7l-4.2-4.2 1.41-1.42 2.79 2.8 5.87-5.88 1.41 1.41-7.28 7.29z"/>
</svg>
